<?xml version="1.0" encoding="UTF-8"?>
<svg enable-background="new 0 0 165.912 205.448" viewBox="0 0 165.912 205.448" xmlns="http://www.w3.org/2000/svg">
 <defs>
  <linearGradient id="b" x2="0" y1="47.223" y2="154.08" gradientUnits="userSpaceOnUse">
   <stop stop-color="#b5dbff" offset="0"/>
   <stop stop-color="#8fbfeb" offset="1"/>
  </linearGradient>
  <linearGradient id="a" x1="73.411" x2="110.34" y1="71.898" y2="160.55" gradientUnits="userSpaceOnUse">
   <stop stop-color="#b5deff" offset="0"/>
   <stop stop-color="#7ac4ff" offset="1"/>
  </linearGradient>
 </defs>
 <path d="m22.4 196.17s-4.25-0.082-6-0.832-3.75-2.5-3.75-2.5v-182.5s1.5 1 3.25 1.75 6.5 1.5 6.5 1.5v182.58z" fill="url(#b)"/>
 <path d="m22.4 13.585h129.5v182.58h-129.5z" fill="url(#a)"/>
 <path d="m152.828,13.423c0-.187-.109-.344-.264-.424-.01-.006-.016-.016-.027-.021l-8.783-4.392c-.066-.033-.141-.051-.217-.051h-129.45c-.315,0-1.118.002-1.572.367-.153.072-.259.221-.272.398-.008.022-.022.039-.028.063-.033.14-.02.281.021.425v182.818c-.029.139-.034.283.012.433 .064.208.259.838 2.236,1.825 2.199,1.101 5.411,2.015 7.613,2.207 .063.031.133.052.208.052l130.079.011c.129,0 .252-.051.342-.143s.143-.213.143-.342l-.041-183.226zm-4.504-1.468h-130.234c-.041,0-.071.025-.105.043-.527-.166-1.041-.351-1.541-.545h130.875l1.005.502zm-1.975-.987h-131.043c-.133-.063-.274-.122-.401-.186-.226-.112-.416-.217-.59-.316h131.031l1.003.502zm-133.146-1.355c.113-.044.365-.108.884-.108h129.336l.953.478h-130.798c-.2-.158-.318-.281-.375-.363v-.007zm1.712,184.387c-1.178-.588-1.604-1.008-1.712-1.184v-.146c.005-.039.005-.076 0-.113v-181.653c.339.241.754.488 1.268.745 2.103,1.051 5.125,1.929 7.311,2.173l.039,182.249c-2.063-.238-4.91-1.072-6.906-2.071zm4.667-181.561h129.71l.979.488h-122.802-4.606c-.879-.001-2.049-.188-3.281-.488zm3.355,183.718-.054-.011c-.029,0-.065-.005-.095-.005l-.039-182.245 129.11.012 .039,182.26-128.961-.011z" fill="#3e3a39"/>
</svg>
