<?xml version="1.0" encoding="UTF-8"?>
<svg viewBox="0 0 640 480" xmlns="http://www.w3.org/2000/svg">
 <defs>
  <linearGradient id="a" x1=".18935" x2=".74556" y1=".11719" y2=".92969">
   <stop offset="0"/>
   <stop stop-opacity="0" offset="1"/>
  </linearGradient>
 </defs>
 <g fill-rule="evenodd">
  <path d="m191.32 391.08c19.694 7.0338 33.762 22.508 88.626 7.0337 54.863-15.474 212.42-97.066 151.93-143.49-60.49-46.423-191.32-77.371-268.69-77.371-12.661 36.576-37.982 188.5 28.135 213.83h1.5e-5z" fill="url(#a)" stroke-width="1.25"/>
  <path d="m393.89 253.67c11.254 1.4068 30.949 9.3147 25.322 26.742-5.6271 17.427-189.91 122.15-213.83 114.23-23.915-7.9212-47.83-34.676-47.83-34.676l236.33-106.3z" fill="#333" stroke-width="1.061"/>
  <g stroke-width="12.5">
   <path d="m399.52 196.88c2.8135 26.933 5.6271 55.831 1.4069 76.236-97.066 55.573-171.62 95.93-225.08 108.04-18.288-17.427-22.508-99.809-22.508-99.809l246.18-84.472z" fill="#bfbfbf" stroke="#7f7f7f"/>
   <g stroke="#333">
    <path d="m213.83 294.03c43.609-20.662 180.06-87.312 202.57-98.566-40.796-21.101-198.35-99.836-236.34-109.15-14.068 4.7528-140.68 61.432-140.68 61.432 21.101 22.508 158.96 141.53 174.44 146.28z" fill="#ff7f00" stroke-linejoin="round"/>
    <path d="m211.01 295.08s-26.728 22.18-28.135 50.697c-1.4068 28.517 23.915 34.171 21.101 44.373-54.863 1.7618-157.56-137.31-181.47-163.89-10.551-16.102-15.123-29.005-10.551-47.18 4.5719-18.175 15.474-28.961 28.838-28.168 26.728 26.906 139.27 119.18 170.22 144.17z" fill="#ffaa56"/>
   </g>
  </g>
 </g>
</svg>
